<svg version="1.1" xmlns="http://www.w3.org/2000/svg" viewBox="0 0 1914.633166775697 322.42972157723216" width="5743.899500327091" height="967.2891647316965">
  <!-- svg-source:excalidraw -->
  
  <defs>
    <style class="style-fonts">
      @font-face {
        font-family: "Virgil";
        src: url("https://excalidraw.com/Virgil.woff2");
      }
      @font-face {
        font-family: "Cascadia";
        src: url("https://excalidraw.com/Cascadia.woff2");
      }
    </style>
  </defs>
  <rect x="0" y="0" width="1914.633166775697" height="322.42972157723216" fill="#ffffff"></rect><g stroke-linecap="round" transform="translate(10 10) rotate(0 947.3165833878485 151.21486078861608)"><path d="M32 0 L1870.13 0.5 L1876.63 2 L1882.13 4.5 L1886.63 8 L1890.13 12.5 L1892.63 18 L1894.13 24.5 L1894.13 277.93 L1892.63 284.43 L1890.13 289.93 L1886.63 294.43 L1882.13 297.93 L1876.63 300.43 L1870.13 301.93 L1862.63 302.43 L24.5 301.93 L18 300.43 L12.5 297.93 L8 294.43 L4.5 289.93 L2 284.43 L0.5 277.93 L0 32 L0.5 24.5 L2 18 L4.5 12.5 L8 8 L12.5 4.5 L18 2 L24.5 0.5 L32 0" stroke="none" stroke-width="0" fill="#7950f2"></path><path d="M32 0 M32 0 C709.96 0, 1387.91 0, 1862.63 0 M32 0 C417.69 0, 803.37 0, 1862.63 0 M1862.63 0 C1883.97 0, 1894.63 10.67, 1894.63 32 M1862.63 0 C1883.97 0, 1894.63 10.67, 1894.63 32 M1894.63 32 C1894.63 90.86, 1894.63 149.73, 1894.63 270.43 M1894.63 32 C1894.63 116.86, 1894.63 201.71, 1894.63 270.43 M1894.63 270.43 C1894.63 291.76, 1883.97 302.43, 1862.63 302.43 M1894.63 270.43 C1894.63 291.76, 1883.97 302.43, 1862.63 302.43 M1862.63 302.43 C1248.52 302.43, 634.41 302.43, 32 302.43 M1862.63 302.43 C1426.48 302.43, 990.33 302.43, 32 302.43 M32 302.43 C10.67 302.43, 0 291.76, 0 270.43 M32 302.43 C10.67 302.43, 0 291.76, 0 270.43 M0 270.43 C0 176.07, 0 81.71, 0 32 M0 270.43 C0 191.83, 0 113.24, 0 32 M0 32 C0 10.67, 10.67 0, 32 0 M0 32 C0 10.67, 10.67 0, 32 0" stroke="#fff" stroke-width="1" fill="none"></path></g><g transform="translate(1664.468541733111 225.75227311015442) rotate(0 103.5 30.5)"><text x="0" y="49" font-family="Cascadia, Segoe UI Emoji" font-size="50.327503856258055px" fill="#000000" text-anchor="start" style="white-space: pre;" direction="ltr">command</text></g><g stroke-linecap="round" transform="translate(42.61492534162994 46.32127096635577) rotate(0 182.34732422668492 118.59989303235898)"><path d="M0 0 L364.69 0 L364.69 237.2 L0 237.2" stroke="none" stroke-width="0" fill="#40c057"></path><path d="M0 0 C142.03 0, 284.07 0, 364.69 0 M0 0 C101.33 0, 202.67 0, 364.69 0 M364.69 0 C364.69 93.4, 364.69 186.8, 364.69 237.2 M364.69 0 C364.69 65.26, 364.69 130.51, 364.69 237.2 M364.69 237.2 C238.85 237.2, 113 237.2, 0 237.2 M364.69 237.2 C244.92 237.2, 125.14 237.2, 0 237.2 M0 237.2 C0 151.84, 0 66.48, 0 0 M0 237.2 C0 160.39, 0 83.58, 0 0" stroke="#5f3dc4" stroke-width="1" fill="none"></path></g><g transform="translate(116.73991503969023 124.2010242166607) rotate(0 110.33666872537253 37.066224649930064)"><text x="0" y="60.13244929985969" font-family="Cascadia, Segoe UI Emoji" font-size="62.064376158022036px" fill="#fff" text-anchor="start" style="white-space: pre;" direction="ltr">Action</text></g><g stroke-linecap="round" transform="translate(1203.4111620812466 46.32127096635486) rotate(0 182.34732422668503 118.59989303235898)"><path d="M0 0 L364.69 0 L364.69 237.2 L0 237.2" stroke="none" stroke-width="0" fill="#40c057"></path><path d="M0 0 C117.7 0, 235.41 0, 364.69 0 M0 0 C90.92 0, 181.84 0, 364.69 0 M364.69 0 C364.69 77.96, 364.69 155.91, 364.69 237.2 M364.69 0 C364.69 82.41, 364.69 164.83, 364.69 237.2 M364.69 237.2 C243.53 237.2, 122.37 237.2, 0 237.2 M364.69 237.2 C242.81 237.2, 120.93 237.2, 0 237.2 M0 237.2 C0 144.18, 0 51.15, 0 0 M0 237.2 C0 183.08, 0 128.96, 0 0" stroke="#5f3dc4" stroke-width="1" fill="none"></path></g><g transform="translate(1277.5361517793074 124.20102421665979) rotate(0 55 37)"><text x="0" y="60" font-family="Cascadia, Segoe UI Emoji" font-size="62.064376158022036px" fill="#fff" text-anchor="start" style="white-space: pre;" direction="ltr">...</text></g><g stroke-linecap="round" transform="translate(429.54700425483543 46.32127096635486) rotate(0 182.34732422668492 118.59989303235898)"><path d="M0 0 L364.69 0 L364.69 237.2 L0 237.2" stroke="none" stroke-width="0" fill="#40c057"></path><path d="M0 0 C75.84 0, 151.68 0, 364.69 0 M0 0 C94.67 0, 189.33 0, 364.69 0 M364.69 0 C364.69 62.48, 364.69 124.97, 364.69 237.2 M364.69 0 C364.69 67.89, 364.69 135.78, 364.69 237.2 M364.69 237.2 C265.11 237.2, 165.52 237.2, 0 237.2 M364.69 237.2 C240.98 237.2, 117.26 237.2, 0 237.2 M0 237.2 C0 188.45, 0 139.7, 0 0 M0 237.2 C0 176.63, 0 116.05, 0 0" stroke="#5f3dc4" stroke-width="1" fill="none"></path></g><g transform="translate(503.6719939528962 124.20102421665979) rotate(0 110.33666872537253 37.066224649930064)"><text x="0" y="60.13244929985969" font-family="Cascadia, Segoe UI Emoji" font-size="62.064376158022036px" fill="#fff" text-anchor="start" style="white-space: pre;" direction="ltr">Action</text></g><g stroke-linecap="round" transform="translate(816.4790831680414 46.32127096635577) rotate(0 182.34732422668503 118.59989303235898)"><path d="M0 0 L364.69 0 L364.69 237.2 L0 237.2" stroke="none" stroke-width="0" fill="#40c057"></path><path d="M0 0 C114.72 0, 229.44 0, 364.69 0 M0 0 C105.8 0, 211.59 0, 364.69 0 M364.69 0 C364.69 78.39, 364.69 156.78, 364.69 237.2 M364.69 0 C364.69 48.53, 364.69 97.05, 364.69 237.2 M364.69 237.2 C287.4 237.2, 210.1 237.2, 0 237.2 M364.69 237.2 C250.66 237.2, 136.62 237.2, 0 237.2 M0 237.2 C0 161.58, 0 85.96, 0 0 M0 237.2 C0 168.87, 0 100.54, 0 0" stroke="#5f3dc4" stroke-width="1" fill="none"></path></g><g transform="translate(890.6040728661012 124.2010242166607) rotate(0 110.33666872537265 37.066224649930064)"><text x="0" y="60.13244929985969" font-family="Cascadia, Segoe UI Emoji" font-size="62.064376158022036px" fill="#fff" text-anchor="start" style="white-space: pre;" direction="ltr">Action</text></g></svg>
